<svg width="24" height="24" viewBox="0 0 24 24" fill="none" xmlns="http://www.w3.org/2000/svg">
<path d="M12 11.6376C10.7333 11.6376 9.65833 11.1959 8.775 10.3126C7.89167 9.42927 7.45 8.35426 7.45 7.0876C7.45 5.82093 7.89167 4.74593 8.775 3.8626C9.65833 2.97926 10.7333 2.5376 12 2.5376C13.2667 2.5376 14.3417 2.97926 15.225 3.8626C16.1083 4.74593 16.55 5.82093 16.55 7.0876C16.55 8.35426 16.1083 9.42927 15.225 10.3126C14.3417 11.1959 13.2667 11.6376 12 11.6376ZM3.25 18.8126V17.8876C3.25 17.2043 3.4125 16.5876 3.7375 16.0376C4.0625 15.4876 4.5 15.0709 5.05 14.7876C6.15 14.2209 7.28333 13.7959 8.45 13.5126C9.61667 13.2293 10.8 13.0876 12 13.0876C13.2 13.0876 14.3833 13.2293 15.55 13.5126C16.7167 13.7959 17.85 14.2209 18.95 14.7876C19.5 15.0709 19.9375 15.4876 20.2625 16.0376C20.5875 16.5876 20.75 17.2043 20.75 17.8876V18.8126C20.75 19.5626 20.4958 20.1918 19.9875 20.7001C19.4792 21.2084 18.85 21.4626 18.1 21.4626H5.9C5.15 21.4626 4.52083 21.2084 4.0125 20.7001C3.50417 20.1918 3.25 19.5626 3.25 18.8126Z" fill="#424242"/>
</svg>
