<svg width="16" height="16" viewBox="0 0 16 16" fill="none" xmlns="http://www.w3.org/2000/svg">
<path d="M6.675 9.32495H1.525C1.15833 9.32495 0.84583 9.19578 0.587497 8.93745C0.329164 8.67912 0.199997 8.36662 0.199997 7.99995C0.199997 7.63328 0.329164 7.32078 0.587497 7.06245C0.84583 6.80412 1.15833 6.67495 1.525 6.67495H6.675V1.52495C6.675 1.15828 6.80416 0.845785 7.0625 0.587451C7.32083 0.329118 7.63333 0.199951 8 0.199951C8.36666 0.199951 8.67916 0.329118 8.9375 0.587451C9.19583 0.845785 9.325 1.15828 9.325 1.52495V6.67495H14.475C14.8417 6.67495 15.1542 6.80412 15.4125 7.06245C15.6708 7.32078 15.8 7.63328 15.8 7.99995C15.8 8.36662 15.6708 8.67912 15.4125 8.93745C15.1542 9.19578 14.8417 9.32495 14.475 9.32495H9.325V14.475C9.325 14.8416 9.19583 15.1541 8.9375 15.4125C8.67916 15.6708 8.36666 15.8 8 15.8C7.63333 15.8 7.32083 15.6708 7.0625 15.4125C6.80416 15.1541 6.675 14.8416 6.675 14.475V9.32495Z" fill="#424242"/>
</svg>
