<svg width="22" height="22" viewBox="0 0 24 24" fill="none" xmlns="http://www.w3.org/2000/svg">
<path d="M3.85 18.1125V19.9125H20.15V18.1125H3.85ZM3.85 6.0125H4.85V5.1125C4.85 4.09167 5.20972 3.22396 5.92917 2.50937C6.64861 1.79479 7.52221 1.4375 8.55 1.4375C9.14876 1.4375 9.70262 1.5875 10.2116 1.8875C10.7205 2.1875 11.1667 2.57917 11.55 3.0625L12 3.6125L12.45 3.0625C12.8333 2.59583 13.2866 2.20833 13.8097 1.9C14.3329 1.59167 14.8963 1.4375 15.5 1.4375C16.5278 1.4375 17.4014 1.79479 18.1208 2.50937C18.8403 3.22396 19.2 4.09167 19.2 5.1125V6.0125H20.15C20.8787 6.0125 21.5026 6.27198 22.0215 6.79095C22.5405 7.3099 22.8 7.93375 22.8 8.6625V19.9125C22.8 20.6413 22.5405 21.2651 22.0215 21.7841C21.5026 22.303 20.8787 22.5625 20.15 22.5625H3.85C3.12125 22.5625 2.4974 22.303 1.97845 21.7841C1.45948 21.2651 1.2 20.6413 1.2 19.9125V8.6625C1.2 7.93375 1.45948 7.3099 1.97845 6.79095C2.4974 6.27198 3.12125 6.0125 3.85 6.0125ZM3.85 14.5125H20.15V8.6625H15.75L17.15 10.6125C17.3667 10.8958 17.4417 11.2125 17.375 11.5625C17.3083 11.9125 17.125 12.1958 16.825 12.4125C16.5417 12.6125 16.2299 12.6859 15.8896 12.6327C15.5494 12.5794 15.2695 12.4143 15.05 12.1375L12 8.0125L8.9 12.1625C8.68048 12.4394 8.40061 12.6044 8.06037 12.6576C7.72012 12.7109 7.4 12.6292 7.1 12.4125C6.81666 12.2125 6.64166 11.9333 6.575 11.575C6.50833 11.2167 6.575 10.8958 6.775 10.6125L8.15 8.6625H3.85V14.5125ZM8.55 6.1875C8.83333 6.1875 9.07916 6.08333 9.2875 5.875C9.49583 5.66667 9.6 5.42083 9.6 5.1375C9.6 4.85417 9.49583 4.60833 9.2875 4.4C9.07916 4.19167 8.83333 4.0875 8.55 4.0875C8.26666 4.0875 8.02083 4.19167 7.8125 4.4C7.60416 4.60833 7.5 4.85417 7.5 5.1375C7.5 5.42083 7.60416 5.66667 7.8125 5.875C8.02083 6.08333 8.26666 6.1875 8.55 6.1875ZM15.5 6.1875C15.7833 6.1875 16.0292 6.08333 16.2375 5.875C16.4458 5.66667 16.55 5.42083 16.55 5.1375C16.55 4.85417 16.4458 4.60833 16.2375 4.4C16.0292 4.19167 15.7833 4.0875 15.5 4.0875C15.2167 4.0875 14.9708 4.19167 14.7625 4.4C14.5542 4.60833 14.45 4.85417 14.45 5.1375C14.45 5.42083 14.5542 5.66667 14.7625 5.875C14.9708 6.08333 15.2167 6.1875 15.5 6.1875Z" fill="#424242"/>
</svg>
