<svg width="24" height="24" viewBox="0 0 24 24" fill="none" xmlns="http://www.w3.org/2000/svg">
<path d="M3.87922 20.2458V13.3439L3.40997 13.7054C3.18433 13.9003 2.92344 13.976 2.62729 13.9324C2.33114 13.8888 2.08564 13.7458 1.89079 13.5035C1.71258 13.2779 1.64366 13.0212 1.68404 12.7334C1.72443 12.4456 1.86064 12.2042 2.09269 12.0093L3.87922 10.6536V8.48432C3.87922 8.18819 3.98435 7.93499 4.19462 7.72472C4.40487 7.51447 4.65807 7.40935 4.95422 7.40935C5.25037 7.40935 5.50357 7.51447 5.71382 7.72472C5.92407 7.93499 6.02919 8.18819 6.02919 8.48432V9.0036L10.5042 5.61705C10.7183 5.44653 10.9516 5.31865 11.2042 5.2334C11.4568 5.14815 11.7151 5.10552 11.9792 5.10552C12.2433 5.10552 12.5016 5.14398 12.7542 5.2209C13.0068 5.29781 13.2401 5.42153 13.4542 5.59205L21.8907 11.9593C22.1227 12.1542 22.2631 12.3956 22.3118 12.6834C22.3606 12.9712 22.2875 13.2362 22.0926 13.4785C21.8978 13.7106 21.6564 13.8526 21.3686 13.9045C21.0808 13.9564 20.8208 13.8849 20.5888 13.6901L20.0792 13.2939V20.2458C20.0792 20.9445 19.8442 21.5288 19.3743 21.9987C18.9045 22.4686 18.3202 22.7035 17.6215 22.7035H14.1234C13.9529 22.7035 13.8058 22.6458 13.6821 22.5304C13.5584 22.415 13.4965 22.2721 13.4965 22.1016V17.6862C13.4965 17.2683 13.3481 16.9109 13.0513 16.6141C12.7545 16.3173 12.3971 16.1689 11.9792 16.1689C11.5612 16.1689 11.2039 16.3173 10.9071 16.6141C10.6103 16.9109 10.4619 17.2683 10.4619 17.6862V22.0766C10.4619 22.2471 10.4042 22.3942 10.2888 22.518C10.1734 22.6417 10.0305 22.7035 9.85994 22.7035H6.33692C5.6382 22.7035 5.05391 22.4686 4.58404 21.9987C4.11416 21.5288 3.87922 20.9445 3.87922 20.2458ZM5.05419 6.3132C4.70293 6.3132 4.42953 6.16544 4.23402 5.86993C4.03852 5.57443 4.01704 5.26642 4.16959 4.94592C4.41959 4.26259 4.851 3.72028 5.46382 3.319C6.07663 2.91772 6.74523 2.71707 7.46959 2.71707C7.71446 2.71707 7.94042 2.65938 8.14747 2.544C8.35453 2.4286 8.51832 2.27347 8.63882 2.0786C8.79652 1.8709 8.98594 1.68852 9.20709 1.53147C9.42824 1.37442 9.66958 1.2959 9.93112 1.2959C10.2721 1.2959 10.5353 1.44942 10.7205 1.75647C10.9058 2.06352 10.9221 2.38051 10.7696 2.70742C10.4965 3.36768 10.0593 3.89684 9.45804 4.29492C8.85676 4.69299 8.19394 4.89202 7.46959 4.89202C7.24138 4.89202 7.02374 4.95068 6.81669 5.068C6.60964 5.1853 6.44586 5.32985 6.32534 5.50165C6.16124 5.71575 5.97118 5.90453 5.75517 6.068C5.53913 6.23147 5.30548 6.3132 5.05419 6.3132Z" fill="white"/>
</svg>
