<svg width="20" height="20" viewBox="0 0 20 20" fill="none" xmlns="http://www.w3.org/2000/svg">
<path d="M7.70001 14.825C5.71667 14.825 4.03751 14.1375 2.66251 12.7625C1.28751 11.3875 0.600006 9.70833 0.600006 7.725C0.600006 5.74167 1.28751 4.0625 2.66251 2.6875C4.03751 1.3125 5.71667 0.625 7.70001 0.625C9.68334 0.625 11.3625 1.3125 12.7375 2.6875C14.1125 4.0625 14.8 5.74167 14.8 7.725C14.8 8.475 14.6958 9.19167 14.4875 9.875C14.2792 10.5583 13.975 11.1667 13.575 11.7L19.025 17.15C19.275 17.4 19.4 17.7083 19.4 18.075C19.4 18.4417 19.275 18.75 19.025 19C18.775 19.25 18.4667 19.375 18.1 19.375C17.7333 19.375 17.425 19.25 17.175 19L11.75 13.575C11.25 13.9583 10.6375 14.2625 9.91251 14.4875C9.18751 14.7125 8.45001 14.825 7.70001 14.825ZM7.70001 12.175C8.95001 12.175 10.0042 11.7458 10.8625 10.8875C11.7208 10.0292 12.15 8.975 12.15 7.725C12.15 6.475 11.7208 5.42083 10.8625 4.5625C10.0042 3.70417 8.95001 3.275 7.70001 3.275C6.45001 3.275 5.39584 3.70417 4.53751 4.5625C3.67917 5.42083 3.25001 6.475 3.25001 7.725C3.25001 8.975 3.67917 10.0292 4.53751 10.8875C5.39584 11.7458 6.45001 12.175 7.70001 12.175Z" fill="#424242"/>
</svg>
