<svg width="22" height="22" viewBox="0 0 22 22" fill="none" xmlns="http://www.w3.org/2000/svg">
<path d="M4.33749 8.3625H0.812488C0.895821 8.09583 0.987488 7.84167 1.08749 7.6C1.18749 7.35833 1.32915 7.12083 1.51249 6.8875L5.38749 1.7375C5.72082 1.2875 6.15832 1 6.69999 0.875C7.24165 0.75 7.76249 0.8125 8.26249 1.0625L8.96249 1.4125C9.36249 1.6125 9.67915 1.9 9.91249 2.275C10.1458 2.65 10.2625 3.05417 10.2625 3.4875V5.1625L11.7125 4.7875C12.2958 4.6375 12.8583 4.70833 13.4 5C13.9417 5.29167 14.3042 5.72917 14.4875 6.3125L16.0875 11.1375L20.2875 15.3375C20.6708 15.7208 20.9292 16.1167 21.0625 16.525C21.1958 16.9333 21.2625 17.3792 21.2625 17.8625C21.2625 18.5125 21.0875 19.1 20.7375 19.625C20.3875 20.15 19.9375 20.5542 19.3875 20.8375L7.78749 9.7375C7.30415 9.2875 6.77082 8.94583 6.18749 8.7125C5.60415 8.47917 4.98749 8.3625 4.33749 8.3625ZM13.0875 21.1875C12.5542 21.1875 12.0375 21.0917 11.5375 20.9C11.0375 20.7083 10.5875 20.4292 10.1875 20.0625L2.06249 12.6875C1.71249 12.3542 1.42499 11.9917 1.19999 11.6C0.974988 11.2083 0.820821 10.7958 0.737488 10.3625H4.33749C4.72082 10.3625 5.09165 10.4292 5.44999 10.5625C5.80832 10.6958 6.12915 10.9042 6.41249 11.1875L16.8625 21.1875H13.0875Z" fill="#424242"/>
</svg>
