<svg width="24" height="24" viewBox="0 0 24 24" fill="none" xmlns="http://www.w3.org/2000/svg">
<path d="M12 17.8988L8.02501 20.2988C7.77501 20.4488 7.51668 20.5154 7.25001 20.4988C6.98335 20.4821 6.75001 20.3988 6.55001 20.2488C6.35001 20.0988 6.20001 19.9029 6.10001 19.6613C6.00001 19.4196 5.98335 19.1571 6.05001 18.8738L7.10001 14.3238L3.57501 11.2738C3.34168 11.0904 3.20001 10.8696 3.15001 10.6113C3.10001 10.3529 3.11668 10.1071 3.20001 9.87378C3.28335 9.64045 3.42501 9.44045 3.62501 9.27378C3.82501 9.10711 4.06668 9.00711 4.35001 8.97378L8.97501 8.57378L10.775 4.29878C10.8917 4.01545 11.0625 3.81128 11.2875 3.68628C11.5125 3.56128 11.75 3.49878 12 3.49878C12.25 3.49878 12.4875 3.56128 12.7125 3.68628C12.9375 3.81128 13.1083 4.01545 13.225 4.29878L15.025 8.57378L19.65 8.97378C19.9333 9.00711 20.175 9.10711 20.375 9.27378C20.575 9.44045 20.7167 9.64045 20.8 9.87378C20.8833 10.1071 20.9 10.3529 20.85 10.6113C20.8 10.8696 20.6583 11.0904 20.425 11.2738L16.9 14.3238L17.95 18.8738C18.0167 19.1571 18 19.4196 17.9 19.6613C17.8 19.9029 17.65 20.0988 17.45 20.2488C17.25 20.3988 17.0167 20.4821 16.75 20.4988C16.4833 20.5154 16.225 20.4488 15.975 20.2988L12 17.8988Z" fill="#424242"/>
</svg>
